inDegrees=yes
name=ik_Xsens
DataType=double
version=3
OpenSimVersion=4.4-2022-07-23-0e9fedc
endheader
time	pelvis_tilt	pelvis_list	pelvis_rotation	pelvis_tx	pelvis_ty	pelvis_tz	hip_flexion_r	hip_adduction_r	hip_rotation_r	knee_angle_r	knee_angle_r_beta	ankle_angle_r	subtalar_angle_r	mtp_angle_r	hip_flexion_l	hip_adduction_l	hip_rotation_l	knee_angle_l	knee_angle_l_beta	ankle_angle_l	subtalar_angle_l	mtp_angle_l	lumbar_extension	lumbar_bending	lumbar_rotation	arm_flex_r	arm_add_r	arm_rot_r	elbow_flex_r	pro_sup_r	wrist_flex_r	wrist_dev_r	arm_flex_l	arm_add_l	arm_rot_l	elbow_flex_l	pro_sup_l	wrist_flex_l	wrist_dev_l
0	3.675315300474956e-48	-6.272538112810592e-46	7.01010761351577e-54	4.379057701015053e-47	0.93	-1.68155815718978e-44	4.594144125593695e-49	-8.028848784397557e-44	0	2.426570649309934e-20	9.561171925853066e-23	-3.853847416510828e-42	3.28861646208924e-40	-1.315446584835696e-39	-1.926923708255414e-42	-1.402021522703154e-53	2.509015245124237e-45	2.426570649309934e-20	-8.406662165544164e-23	-1.052357267868557e-38	3.083077933208662e-41	-3.15707180360567e-38	-3.136269056405296e-46	4.704403584607944e-46	-1.926923708255414e-42	90.00090961068574	0.0004951165024056034	-0.005868309637325447	-0.003581526738110419	0.003583691830432289	-9.408807169215888e-46	8.028848784397557e-44	90.00090961068267	0.0004951165063749357	-0.005868309633407003	-0.003581526738721085	0.003583691832467844	-2.007212196099389e-44	-2.007212196099389e-44
0.01666666666666667	6.641308055573603e-68	-1.275131146670132e-65	1.266728983988495e-73	8.902094761649811e-67	0.93	-3.038581678643136e-64	2.297072062796848e-49	-1.632167867737769e-63	0	1.213285324654967e-20	4.780585962926533e-23	-6.963916235681147e-62	6.685359586253901e-60	-2.67414383450156e-59	2.297072062796848e-49	-2.533457967976991e-73	5.100524586680527e-65	1.213285324654967e-20	-4.203331082772082e-23	-2.139315067601248e-58	5.571132988544917e-61	-5.704840180269995e-58	-6.375655733350659e-66	8.500874311134212e-66	-3.481958117840573e-62	90.09192202631	0.01724468634005255	-0.07199079604894873	-0.1405218997956193	0.02899360236399709	-1.700174862226842e-65	1.632167867737769e-63	89.99454423474265	-0.05390840344121853	0.03095484771923875	-0.03837531413263056	-0.04661619151355306	-4.080419669344422e-64	-4.080419669344422e-64
0.03333333333333333	2.700195233249393e-87	-4.608333198078964e-85	5.15021368646506e-93	3.217223493417518e-86	0.93	-1.235413821472327e-83	4.594144125593695e-49	-5.898666493541074e-83	0	2.426570649309934e-20	-4.609545522609685e-24	-2.831359916899716e-81	2.416093795754424e-79	-9.664375183017696e-79	4.594144125593695e-49	-1.030042737293012e-92	1.843333279231586e-84	2.426570649309934e-20	-9.444871597959584e-23	-7.731500146414157e-78	2.265087933519773e-80	-2.319450043924247e-77	-2.304166599039482e-85	3.456249898559223e-85	-1.415679958449858e-81	90.13643547030321	0.04572319547262064	-0.07024798152005793	-0.2365433095704754	0.03256373883365184	-6.912499797118447e-85	5.898666493541074e-83	89.96708278228083	-0.109712930545211	0.05275371332766957	-0.03633516301033944	-0.09896787705308399	-1.474666623385269e-83	-1.474666623385269e-83
0.05	9.758525126746651e-107	-1.873636824335357e-104	1.861290955876665e-112	1.308045262850504e-105	0.93	-4.464794497196387e-103	4.594144125593695e-49	-2.398255135149257e-102	0	2.426570649309934e-20	4.780585962926533e-23	-1.02325552433035e-100	9.823253033571357e-99	-3.929301213428543e-98	4.594144125593695e-49	-3.722581911753331e-112	7.494547297341428e-104	2.426570649309934e-20	-4.203331082772083e-23	-3.143440970742834e-97	8.186044194642797e-100	-8.382509255314225e-97	-9.368184121676785e-105	1.249091216223571e-104	-5.116277621651748e-101	90.12881607871738	0.07903174067731628	-0.1102383139677518	-0.2833364396177102	0.0552942841056253	-2.498182432447143e-104	2.398255135149257e-102	89.93940368143799	-0.1369498010106556	0.06208366563887343	-0.03488268135342891	-0.0909139681409145	-5.995637837873143e-103	-5.995637837873143e-103
0.06666666666666667	3.967580303502413e-126	-6.771337051310785e-124	7.567558867459132e-132	4.727285052306297e-125	0.93	-1.815277460085618e-122	4.594144125593695e-49	-8.667311425677805e-122	0	2.426570649309934e-20	4.780585962926533e-23	-4.160309484325346e-120	3.550130759957629e-118	-1.420052303983052e-117	4.594144125593695e-49	-1.513511773491826e-131	2.708534820524314e-123	2.426570649309934e-20	-4.203331082772083e-23	-1.136041843186441e-116	3.328247587460277e-119	-3.408125529559324e-116	-3.385668525655393e-124	5.078502788483089e-124	-2.080154742162673e-120	90.12009120453394	0.1042546338616656	-0.1291660055290018	-0.3372129090309072	0.04314737351175166	-1.015700557696618e-123	8.667311425677805e-122	89.91239858492702	-0.1315697151752302	0.06410324108879648	-0.07493401150371737	-0.08912461048362648	-2.166827856419451e-122	-2.166827856419451e-122
0.08333333333333333	1.433886394856005e-145	-2.753061878123529e-143	2.734921254837045e-151	1.921999771375777e-144	0.93	-6.560425886295985e-142	4.594144125593695e-49	-3.523919203998117e-141	0	2.426570649309934e-20	1.002212647811403e-22	-1.50353886037253e-139	1.443397305957629e-137	-5.773589223830514e-137	4.594144125593695e-49	-5.469842509674089e-151	1.101224751249411e-142	2.426570649309934e-20	1.038209432415419e-23	-4.618871379064411e-136	1.202831088298024e-138	-1.231699034417176e-135	-1.376530939061764e-143	1.835374585415686e-143	-7.517694301862649e-140	90.10969489557436	0.1189925030618825	-0.1679853397214996	-0.3878272045548229	0.03738542362305456	-3.670749170831372e-143	3.523919203998117e-141	89.90080001826465	-0.09457361678006342	0.06901388995634235	-0.177898302515729	-0.1549554754731902	-8.809798009995292e-142	-8.809798009995292e-142
0.1	0	0	0	0	0.93	0	0	0	0	0	0	0	0	0	0	0	0	0	0	0	0	0	0	0	0	90.09702167766741	0.1410109030531921	-0.1523076588181462	-0.4362368679152758	-0.02890335194614772	0	0	89.88325882511576	-0.03002400070383572	0.08465993484860243	-0.3188802358271094	-0.259737062199825	0	0
0.1166666666666667	0	0	0	0	0.93	0	2.297072062796848e-49	0	0	1.213285324654967e-20	2.62077025759375e-23	0	0	0	2.297072062796848e-49	0	0	1.213285324654967e-20	2.62077025759375e-23	0	0	0	0	0	0	90.10676524162987	0.1605035093517945	-0.1328993416510517	-0.5042543915475407	-0.05409384088954185	0	0	89.90361201109413	0.04860501068489059	0.1736658699545243	-0.5066915174485248	-0.332922875707013	0	0
0.1333333333333333	0	0	0	0	0.93	0	0	0	0	0	0	0	0	0	0	0	0	0	0	0	0	0	0	0	0	90.14477237000536	0.186452496312552	-0.1055108896902181	-0.6131954407204487	-0.1080326064617362	0	0	89.92520941389397	0.1562321459556291	0.2744148541972805	-0.7122963454697424	-0.4331005581545577	0	0
0.15	0	0	0	0	0.93	0	0	0	0	0	0	0	0	0	0	0	0	0	0	0	0	0	0	0	0	90.23851640896885	0.2379900577544951	-0.01447019055450922	-0.7975339677011531	-0.2392670333513041	0	0	89.95923412476004	0.2628240940685004	0.3930535311806895	-0.9205730798175398	-0.5424376029528299	0	0
0.1666666666666667	-1.489127628324722e-28	-2.801103072893046e-24	9.286445047382092e-29	1.517799812821919e-26	0.93	7.008517961022107e-24	-8.04718912874008e-31	1.040132711162973e-23	0	0	-1.94244901216283e-17	-6.074592708688531e-22	-5.343307755196822e-20	1.348431000919134e-22	-8.907379679532892e-21	3.987502399562541e-27	1.050785142508376e-20	0	-1.933510715944978e-17	-2.544634211091787e-19	-1.096457532345381e-20	-6.336396307826548e-22	-1.489127628324722e-28	-1.304030837725478e-24	-1.325222992232642e-24	90.36259847963234	0.3004909518667469	0.1145005662629672	-1.035241281228701	-0.4076327993398635	-1.121570610629993e-19	-1.612158243982092e-22	90.01251405772841	0.3733647463702546	0.5585374980342874	-1.139576912812405	-0.6931154949107671	-2.756682988857485e-22	-7.442368625018256e-24
0.1833333333333333	0	0	0	0	0.93	0	0	0	0	0	1.175494350822288e-38	0	0	0	0	0	0	0	1.175494350822288e-38	0	0	0	0	0	0	90.42317628094642	0.339522313774097	0.2020063603348813	-1.239946766942681	-0.5506129299101798	0	0	90.06413139919032	0.4892657919682622	0.6732281051230639	-1.351062526691116	-0.7854871406742354	0	0
0.2	0	0	0	0	0.93	0	2.297072062796848e-49	0	0	1.213285324654967e-20	-2.620770257593749e-23	0	0	0	2.297072062796848e-49	0	0	1.213285324654967e-20	-2.620770257593749e-23	0	0	0	0	0	0	90.40971793984707	0.3465853950368077	0.3026344402981087	-1.348598643501731	-0.667815771655362	0	0	90.10566167963606	0.592265702627358	0.767788210223794	-1.549057574581436	-0.8151160539448205	0	0
0.2166666666666667	0	0	0	0	0.93	0	0	0	0	0	0	0	0	0	0	0	0	0	0	0	0	0	0	0	0	90.3261736941659	0.3194441314310382	0.3345415591555973	-1.45825225445672	-0.7458196702720964	0	0	90.14207995012767	0.7062149014971127	0.855275080596492	-1.710201190984791	-0.8312843866405543	0	0
